<svg width="140" height="140" viewBox="0 0 140 140" fill="none" xmlns="http://www.w3.org/2000/svg">
<path d="M61.4634 37.3836C63.7348 43.2514 59.6901 50.2866 54.5264 52.2854C49.3626 54.2842 41.8479 51.7235 39.5765 45.8556C37.3051 39.9877 40.2491 31.3277 45.4128 29.329C52.2983 26.6637 59.1921 31.5157 61.4634 37.3836Z" fill="#D1D5DB"/>
<path d="M64.3745 37.1308C63.1501 43.3027 68.3485 49.5341 73.7798 50.6116C79.211 51.689 86.1709 47.8695 87.3953 41.6977C88.6197 35.5258 84.2251 27.504 78.7939 26.4265C71.5517 24.9898 65.5989 30.959 64.3745 37.1308Z" fill="#D1D5DB"/>
<path d="M117.762 82.1278C117.762 102.892 97.6174 110.61 70.1393 110.61C42.6612 110.61 22.9727 102.892 22.9727 82.1278C22.9727 57.9748 42.6612 36.5562 70.1393 36.5562C97.6174 36.5562 117.762 56.152 117.762 82.1278Z" fill="#F3F4F6"/>
<path d="M104.832 81.8886C104.832 97.1103 90.7185 102.768 71.4672 102.768C52.2158 102.768 38.4219 97.1103 38.4219 81.8886C38.4219 64.1826 52.2158 48.481 71.4672 48.481C90.7185 48.481 104.832 62.8462 104.832 81.8886Z" fill="#F9FAFB"/>
<path d="M69.6496 79.7651C69.6496 84.7988 66.5801 90.3209 62.2907 90.3209C58.0013 90.3209 51.0723 86.2194 51.0723 78.7001C51.0723 71.6365 58.5577 69.1243 66.2927 70.4142C71.0335 71.2048 69.6496 74.7314 69.6496 79.7651Z" fill="#D1D5DB"/>
<path d="M66.0625 79.2566C66.0625 80.0116 65.8468 80.6237 64.7681 80.6237C63.6894 80.6237 63.4736 80.0116 63.4736 79.2566C63.4736 78.5015 63.9051 77.8894 64.7681 77.8894C65.631 77.8894 66.0625 78.5015 66.0625 79.2566Z" fill="#F3F4F6"/>
<path d="M82.3428 79.7651C82.3428 84.7988 85.1878 90.3209 89.1635 90.3209C93.1392 90.3209 99.5615 86.2194 99.5615 78.7001C99.5615 71.6365 92.6235 69.1243 85.4542 70.4142C81.0601 71.2048 82.3428 74.7314 82.3428 79.7651Z" fill="#D1D5DB"/>
<path d="M85.6688 79.2566C85.6688 80.0116 85.8688 80.6237 86.8686 80.6237C87.8684 80.6237 88.0684 80.0116 88.0684 79.2566C88.0684 78.5015 87.6684 77.8894 86.8686 77.8894C86.0687 77.8894 85.6688 78.5015 85.6688 79.2566Z" fill="#F3F4F6"/>
<path d="M71.2247 87.0969C70.9774 86.7371 70.4852 86.646 70.1253 86.8933C69.7655 87.1407 69.6744 87.6329 69.9218 87.9927L71.2247 87.0969ZM76.3709 85.9636L77.1186 85.7066C77.0088 85.3874 76.7085 85.173 76.3709 85.173C76.0334 85.173 75.733 85.3874 75.6233 85.7066L76.3709 85.9636ZM82.8201 87.9927C83.0675 87.6329 82.9763 87.1407 82.6165 86.8933C82.2567 86.646 81.7645 86.7371 81.5171 87.0969L82.8201 87.9927ZM69.9218 87.9927C70.1595 88.3385 70.5945 88.8061 71.179 89.1925C71.7684 89.5822 72.5521 89.9166 73.4721 89.9166V88.3354C72.9426 88.3354 72.4581 88.1427 72.051 87.8736C71.639 87.6012 71.3494 87.2782 71.2247 87.0969L69.9218 87.9927ZM73.4721 89.9166C74.5863 89.9166 75.4258 89.1231 75.9597 88.417C76.5203 87.6758 76.9175 86.8056 77.1186 86.2206L75.6233 85.7066C75.462 86.1758 75.1345 86.8868 74.6986 87.4632C74.2361 88.0748 73.8073 88.3354 73.4721 88.3354V89.9166ZM75.6233 86.2206C75.8244 86.8056 76.2216 87.6758 76.7821 88.417C77.3161 89.1231 78.1556 89.9166 79.2698 89.9166V88.3354C78.9345 88.3354 78.5058 88.0748 78.0433 87.4632C77.6073 86.8868 77.2799 86.1758 77.1186 85.7066L75.6233 86.2206ZM79.2698 89.9166C80.1897 89.9166 80.9735 89.5822 81.5629 89.1925C82.1473 88.8061 82.5824 88.3385 82.8201 87.9927L81.5171 87.0969C81.3925 87.2782 81.1028 87.6012 80.6908 87.8736C80.2837 88.1427 79.7992 88.3354 79.2698 88.3354V89.9166Z" fill="#D1D5DB"/>
<path d="M81.197 85.1512C81.197 85.8924 77.81 86.838 76.7351 87.1194C76.5227 87.1751 76.3012 87.1751 76.0888 87.1194C75.014 86.838 71.627 85.8924 71.627 85.1512C71.627 84.2703 74.2727 83.3284 76.412 83.3284C78.5513 83.3284 81.197 84.2703 81.197 85.1512Z" fill="#D1D5DB"/>
<path d="M77.1154 60.965C56.7769 62.2437 51.8164 55.7514 51.0723 53.0121L62.4816 46.6498L75.3791 44.2639L93.2373 53.5423C92.1625 55.7514 89.6224 60.1787 77.1154 60.965Z" fill="#D1D5DB"/>
<path fill-rule="evenodd" clip-rule="evenodd" d="M72.607 110.676C98.6627 110.676 117.764 102.958 117.764 82.1935C117.764 56.2176 98.6627 36.6218 72.607 36.6218C46.5512 36.6218 27.8818 58.0405 27.8818 82.1935C27.8818 102.958 46.5512 110.676 72.607 110.676ZM71.5829 102.701C90.7489 102.701 104.8 97.0489 104.8 81.8433C104.8 62.821 90.7489 48.4708 71.5829 48.4708C52.4169 48.4708 38.6841 64.1559 38.6841 81.8433C38.6841 97.0489 52.4169 102.701 71.5829 102.701Z" fill="#F3F4F6"/>
<path fill-rule="evenodd" clip-rule="evenodd" d="M17.2196 65.1236C20.1091 61.8882 25.3171 62.4249 27.486 66.1816L30.6626 71.6835C32.8315 75.4402 30.6923 80.2188 26.4456 81.1035L25.0644 81.3912C24.9854 81.4077 24.9062 81.4226 24.8271 81.436C24.7973 81.5181 24.7595 81.598 24.7151 81.6743C23.4574 83.8363 22.8587 88.817 29.0554 94.5814C35.0933 100.198 40.3128 100.607 42.7154 100.007C42.8858 99.9642 43.0629 99.9521 43.2337 99.9737L43.5482 99.3502C45.5018 95.4772 50.6712 94.6476 53.7386 97.715L58.2309 102.207C61.2982 105.275 60.4687 110.444 56.5956 112.398L56.3051 112.544C56.2255 112.67 56.1121 112.78 55.9645 112.86C48.3149 117.012 31.1187 115.005 21.7125 101.924C9.93948 85.5524 11.1255 71.6321 15.7675 66.6653C15.8466 66.5806 15.9367 66.5156 16.0331 66.4694C16.1121 66.3696 16.1943 66.2717 16.2799 66.1759L17.2196 65.1236Z" fill="#D1D5DB"/>
<path d="M108.265 35.446C109.528 32.5755 110.649 32.0213 112.377 31.762C113.713 31.5569 114.812 31.2474 115.271 30.2036C115.73 29.1598 115.192 28.1303 114.172 27.6816C113.176 27.2434 111.937 27.5481 111.392 28.7238L107.62 27.0648C109.201 23.5984 112.476 23.17 115.583 24.5369C119.023 26.0499 120.784 28.8061 119.459 31.819C118.582 33.8117 116.972 34.5757 114.965 34.8255C113.35 35.0212 112.42 35.4616 111.753 36.9799L111.607 37.312L108.119 35.7781L108.265 35.446ZM107.512 42.0512C106.326 41.5294 105.77 40.1527 106.326 38.9533C106.814 37.7804 108.204 37.2593 109.39 37.781C110.529 38.2819 111.108 39.669 110.62 40.8419C110.064 42.0413 108.651 42.552 107.512 42.0512Z" fill="#D1D5DB"/>
<path d="M119.826 43.5493C121.494 41.8281 122.445 41.729 123.752 42.0026C124.764 42.2108 125.634 42.2811 126.24 41.6552C126.847 41.0293 126.735 40.1486 126.123 39.5558C125.526 38.9769 124.557 38.8661 123.854 39.5636L121.592 37.372C123.647 35.3084 126.107 35.872 127.971 37.6777C130.033 39.6763 130.562 42.1194 128.811 43.926C127.654 45.1209 126.297 45.2404 124.792 44.8859C123.583 44.5968 122.8 44.6651 121.918 45.5755L121.725 45.7747L119.633 43.7485L119.826 43.5493ZM117.53 48.0821C116.819 47.3929 116.787 46.2587 117.505 45.547C118.166 44.8362 119.3 44.8323 120.012 45.5215C120.694 46.1832 120.74 47.3311 120.079 48.0419C119.362 48.7536 118.213 48.7437 117.53 48.0821Z" fill="#D1D5DB"/>
</svg>
